<svg width="110" height="120" viewBox="0 0 110 120" fill="none" xmlns="http://www.w3.org/2000/svg">
<path d="M79.44 29.1621C99.0544 42.5065 104.235 69.3694 91.0106 89.1621C77.7865 108.955 51.1656 114.182 31.5512 100.838C11.9368 87.4935 6.75642 60.6306 19.9806 40.8379C33.2047 21.0452 59.8256 15.8178 79.44 29.1621ZM35.1769 95.4112C51.8212 106.735 74.4111 102.299 85.6328 85.5034C96.8545 68.7078 92.4586 45.9125 75.8143 34.5888C59.1699 23.2651 36.5801 27.701 25.3584 44.4966C14.1367 61.2922 18.5326 84.0875 35.1769 95.4112Z" fill="#231E26"/>
<path d="M33.7258 98.3608C32.7312 99.8765 30.6828 100.3 29.2572 99.1805C23.3341 94.5275 18.7105 88.3718 15.8755 81.3165C12.6284 73.2359 11.8792 64.3532 13.7265 55.8352C15.5737 47.3171 19.9308 39.5619 26.2257 33.5884C32.5205 27.6148 40.4586 23.7021 48.9974 22.3643C57.5362 21.0265 66.2763 22.326 74.0698 26.0922C81.8633 29.8585 88.3456 35.9153 92.6655 43.4671C96.9854 51.019 98.9407 59.7127 98.2746 68.4064C97.6926 76.0025 95.1332 83.2881 90.8817 89.5374C89.8643 91.0327 87.7888 91.2495 86.385 90.1091C84.9987 88.9828 84.7927 86.9569 85.7797 85.4681C89.2407 80.2474 91.3254 74.2004 91.808 67.9019C92.3732 60.5246 90.714 53.1474 87.0482 46.739C83.3825 40.3307 77.8817 35.1911 71.2684 31.9951C64.655 28.7992 57.2383 27.6964 49.9925 28.8317C42.7467 29.9669 36.0106 33.2871 30.669 38.3561C25.3273 43.4252 21.6299 50.006 20.0624 57.2342C18.4949 64.4625 19.1306 72.0001 21.886 78.8571C24.2361 84.7054 28.0343 89.8253 32.894 93.7397C34.2893 94.8636 34.7088 96.8629 33.7258 98.3608Z" fill="url(#paint0_linear_2697_2207)"/>
<defs>
<linearGradient id="paint0_linear_2697_2207" x1="100.845" y1="89.2756" x2="31.5067" y2="118.705" gradientUnits="userSpaceOnUse">
<stop stop-color="#FF007A"/>
<stop offset="0.226193" stop-color="#F24462" stop-opacity="0.8"/>
<stop offset="0.666117" stop-color="#802AB4" stop-opacity="0.6"/>
<stop offset="0.985297" stop-color="#1712FF" stop-opacity="0.4"/>
</linearGradient>
</defs>
</svg>
