<svg width="86" height="87" viewBox="0 0 86 87" fill="none" xmlns="http://www.w3.org/2000/svg">
<path d="M66.7818 7.38868C86.3962 20.733 91.5766 47.596 78.3524 67.3887C65.1283 87.1814 38.5074 92.4088 18.893 79.0645C-0.721453 65.7201 -5.90178 38.8572 7.32236 19.0645C20.5465 -0.728263 47.1674 -5.95569 66.7818 7.38868ZM22.5187 73.6378C39.163 84.9615 61.7529 80.5256 72.9746 63.73C84.1963 46.9343 79.8004 24.1391 63.1561 12.8154C46.5117 1.49165 23.9219 5.92752 12.7002 22.7232C1.47846 39.5188 5.87437 62.314 22.5187 73.6378Z" fill="#231E26"/>
<path d="M21.0676 76.5874C20.073 78.1031 18.0246 78.527 16.599 77.407C10.6759 72.7541 6.05234 66.5984 3.21727 59.5431C-0.0298192 51.4625 -0.778958 42.5798 1.06825 34.0617C2.91546 25.5436 7.27263 17.7885 13.5675 11.8149C19.8623 5.84136 27.8004 1.9287 36.3392 0.590861C44.878 -0.746978 53.6181 0.552568 61.4116 4.31881C69.2051 8.08505 75.6874 14.1419 80.0073 21.6937C84.3271 29.2455 86.2824 37.9393 85.6164 46.633C85.0344 54.229 82.475 61.5147 78.2234 67.7639C77.2061 69.2593 75.1306 69.476 73.7268 68.3356C72.3405 67.2094 72.1345 65.1834 73.1215 63.6947C76.5825 58.474 78.6672 52.427 79.1498 46.1285C79.715 38.7512 78.0558 31.3739 74.39 24.9656C70.7243 18.5573 65.2235 13.4176 58.6102 10.2217C51.9968 7.02573 44.5801 5.92297 37.3343 7.05823C30.0885 8.19348 23.3524 11.5137 18.0108 16.5827C12.6691 21.6517 8.97171 28.2326 7.40422 35.4608C5.83672 42.6891 6.47242 50.2267 9.22782 57.0837C11.5779 62.932 15.3761 68.0519 20.2358 71.9663C21.6311 73.0902 22.0506 75.0895 21.0676 76.5874Z" fill="url(#paint0_linear_925_111)"/>
<defs>
<linearGradient id="paint0_linear_925_111" x1="88.1866" y1="67.5021" x2="18.8485" y2="96.9317" gradientUnits="userSpaceOnUse">
<stop stop-color="#FF007A"/>
<stop offset="0.226193" stop-color="#F24462" stop-opacity="0.8"/>
<stop offset="0.666117" stop-color="#802AB4" stop-opacity="0.6"/>
<stop offset="0.985297" stop-color="#1712FF" stop-opacity="0.4"/>
</linearGradient>
</defs>
</svg>
