<svg width="50" height="50" viewBox="0 0 50 50" fill="none" xmlns="http://www.w3.org/2000/svg">
<path d="M50 25C50 38.8071 38.8071 50 25 50C11.1929 50 0 38.8071 0 25C0 11.1929 11.1929 0 25 0C38.8071 0 50 11.1929 50 25ZM2.5 25C2.5 37.4264 12.5736 47.5 25 47.5C37.4264 47.5 47.5 37.4264 47.5 25C47.5 12.5736 37.4264 2.5 25 2.5C12.5736 2.5 2.5 12.5736 2.5 25Z" fill="#231E26"/>
<path d="M50 25C50 38.8071 38.8071 50 25 50C11.1929 50 0 38.8071 0 25C0 11.1929 11.1929 0 25 0C38.8071 0 50 11.1929 50 25ZM2.5 25C2.5 37.4264 12.5736 47.5 25 47.5C37.4264 47.5 47.5 37.4264 47.5 25C47.5 12.5736 37.4264 2.5 25 2.5C12.5736 2.5 2.5 12.5736 2.5 25Z" fill="url(#paint0_linear_2727_380)"/>
<defs>
<linearGradient id="paint0_linear_2727_380" x1="10.5" y1="5" x2="40.0028" y2="-1.90079" gradientUnits="userSpaceOnUse">
<stop stop-color="#FF007A"/>
<stop offset="0.4887" stop-color="#F24462"/>
<stop offset="1" stop-color="#1712FF" stop-opacity="0.4"/>
</linearGradient>
</defs>
</svg>
